<?xml version="1.0" encoding="utf-8"?>
<!-- Generator: Adobe Illustrator 15.1.0, SVG Export Plug-In . SVG Version: 6.00 Build 0)  -->
<!DOCTYPE svg PUBLIC "-//W3C//DTD SVG 1.1//EN" "http://www.w3.org/Graphics/SVG/1.1/DTD/svg11.dtd">
<svg version="1.1" id="Layer_1" xmlns="http://www.w3.org/2000/svg" xmlns:xlink="http://www.w3.org/1999/xlink" x="0px" y="0px"
	 width="296.249px" height="88.158px" viewBox="0 0 296.249 88.158" enable-background="new 0 0 296.249 88.158"
	 xml:space="preserve">
<g>
	<g>
		<path fill="#A30046" d="M23.086,72.123c1.809,0,2.528,0.154,3.073,0.369c1.381,0.545,2.198,1.75,2.198,3.209
			c0,1.713-1.09,2.977-3.171,3.346v0.041c1.167,0.35,1.848,1.303,2.704,2.547l0.097,0.117l1.245,1.926
			c0,0.02,0.039,0.059,0.059,0.098c1.051,1.672,1.829,2.004,2.51,2.139v0.195h-3.308c-0.194-0.234-0.369-0.408-0.622-0.797
			c-0.078-0.098-0.37-0.506-0.409-0.545c-0.019-0.039-0.038-0.078-0.058-0.098l-1.868-2.84c-0.02-0.02-0.02-0.039-0.097-0.156
			c-0.02-0.039-0.914-1.479-1.81-1.926c-0.369-0.176-0.7-0.271-1.673-0.311v4.844c0,1.166,0.604,1.633,1.576,1.633v0.195H18.28
			v-0.195c1.07,0,1.576-0.506,1.576-1.594V73.951c0-1.537-1.012-1.635-1.596-1.635v-0.193H23.086z M21.957,78.912
			c1.731,0,4.163-0.117,4.163-3.055c0-1.012-0.447-3.211-2.977-3.211c-0.35,0-0.875,0-1.187,0.117V78.912z"/>
		<path fill="#A30046" d="M37.756,86.109h-5.233v-0.195c0.584-0.018,1.575-0.096,1.575-1.594V73.892
			c0-1.459-0.973-1.537-1.575-1.576v-0.193h5.233v0.193c-0.584,0.039-1.576,0.117-1.576,1.576V84.32
			c0,1.518,0.992,1.576,1.576,1.594V86.109z"/>
		<path fill="#A30046" d="M51.588,72.123l-9.474,13.383H47.6c3.424,0,3.93-1.459,4.222-2.354h0.194l-0.428,2.957H39.371v-0.291
			l9.416-12.996h-6.322c-1.771,0-2.666,0.35-2.88,1.945h-0.214v-2.645H51.588z"/>
		<path fill="#A30046" d="M59.839,71.791c3.793,0,7.431,2.822,7.431,7.354c0,3.969-2.996,7.314-7.314,7.314
			c-4.065,0-7.47-3.074-7.47-7.275C52.485,74.904,55.948,71.791,59.839,71.791z M60.092,85.933c2.995,0,4.688-2.781,4.688-6.479
			c0-4.396-2.314-7.234-5.213-7.234c-1.79,0-4.63,1.244-4.63,6.555C54.937,82.705,56.745,85.933,60.092,85.933z"/>
		<path fill="#A30046" d="M80.462,82.841v-8.949c0-1.439-0.973-1.537-1.596-1.576v-0.193h3.871v0.193
			c-0.642,0.039-1.595,0.137-1.595,1.576v12.566h-0.233L70.54,74.787v9.533c0,1.518,0.992,1.576,1.576,1.594v0.195h-3.832v-0.195
			c0.583-0.018,1.575-0.096,1.575-1.594V74.048l-0.544-0.623c-0.02-0.02-0.059-0.039-0.078-0.078
			c-0.817-0.953-1.381-0.992-1.81-1.031v-0.193h3.424L80.462,82.841z"/>
		<path fill="#A30046" d="M93.984,83.736c0.622,1.828,1.304,2.061,2.14,2.178v0.195h-5.428v-0.195
			c0.448-0.018,1.401-0.039,1.401-1.051c0-0.174-0.02-0.389-0.233-1.012l-1.168-3.441h-4.493l-1.031,3.209
			c-0.155,0.467-0.233,0.953-0.233,1.168c0,1.051,0.837,1.109,1.167,1.127v0.195h-3.734v-0.195c1.147-0.076,1.692-1.01,1.983-1.906
			l3.853-12.08h1.73L93.984,83.736z M86.417,79.728h4.046l-2.062-6.107h-0.039L86.417,79.728z"/>
		<path fill="#A30046" d="M110.749,72.099c-0.368-1.99-1.646-3.441-3.834-3.441c-2.064,0-3.121,1.451-3.121,2.9
			c0,1.918,1.77,3.121,3.613,4.277c2.531,1.598,4.571,2.826,4.571,5.652c0,1.107-0.295,2.459-1.622,3.688
			c-1.204,1.129-2.385,1.375-3.834,1.375c-1.18,0-2.09-0.246-2.753-0.516c-1.008-0.418-1.131-0.467-1.401-0.467
			s-0.663,0.123-0.713,0.736h-0.245l0.196-4.521h0.246c0.098,0.664,0.344,2.039,1.622,3.047c0.786,0.615,2.064,1.033,3.048,1.033
			c1.744,0,3.22-1.375,3.22-3.121c0-1.77-1.353-2.924-3.785-4.424c-2.09-1.303-4.203-2.631-4.203-5.58
			c0-2.137,1.475-4.719,5.137-4.719c0.812,0,1.721,0.123,2.384,0.344c0.295,0.1,0.737,0.221,1.008,0.221
			c0.024,0,0.541-0.023,0.664-0.588h0.245l-0.196,4.104H110.749z"/>
		<path fill="#A30046" d="M125.922,74.865h-0.194c-0.155-1.809-1.673-1.945-2.704-1.945h-2.354v11.4
			c0,1.518,0.991,1.576,1.595,1.594v0.195h-5.271v-0.195c0.622-0.018,1.595-0.117,1.595-1.594v-11.4h-2.354
			c-1.129,0-2.49,0.137-2.704,1.945h-0.194V71.48h0.194c0.078,0.232,0.175,0.311,0.467,0.447s1.381,0.195,1.79,0.195h7.684
			c1.265,0,1.557-0.078,1.829-0.156c0.291-0.078,0.389-0.313,0.428-0.486h0.194V74.865z"/>
		<path fill="#A30046" d="M136.837,83.736c0.623,1.828,1.304,2.061,2.141,2.178v0.195h-5.428v-0.195
			c0.447-0.018,1.4-0.039,1.4-1.051c0-0.174-0.02-0.389-0.233-1.012l-1.167-3.441h-4.494l-1.031,3.209
			c-0.155,0.467-0.233,0.953-0.233,1.168c0,1.051,0.837,1.109,1.168,1.127v0.195h-3.735v-0.195c1.147-0.076,1.692-1.01,1.984-1.906
			l3.852-12.08h1.731L136.837,83.736z M129.27,79.728h4.047l-2.063-6.107h-0.039L129.27,79.728z"/>
		<path fill="#A30046" d="M150.963,74.865h-0.194c-0.155-1.809-1.673-1.945-2.704-1.945h-2.354v11.4
			c0,1.518,0.992,1.576,1.596,1.594v0.195h-5.272v-0.195c0.623-0.018,1.596-0.117,1.596-1.594v-11.4h-2.354
			c-1.129,0-2.49,0.137-2.704,1.945h-0.195V71.48h0.195c0.077,0.232,0.175,0.311,0.467,0.447c0.291,0.137,1.381,0.195,1.789,0.195
			h7.685c1.265,0,1.557-0.078,1.828-0.156c0.293-0.078,0.39-0.313,0.429-0.486h0.194V74.865z"/>
		<path fill="#A30046" d="M158.922,78.814c0.35,0,1.789,0,1.905-1.439h0.195v3.443h-0.195c-0.077-0.953-0.719-1.479-1.77-1.479
			h-2.762v4.727c0,0.584-0.02,1.518,1.438,1.518h1.867c1.324,0,1.966-0.428,2.315-1.732h0.195l-0.409,2.258h-9.085v-0.195
			c0.584,0,1.596-0.059,1.596-1.633v-10.33c0-0.156,0.02-1.635-1.4-1.635h-0.195v-0.193h9.085v2.275h-0.194
			c0-1.303-0.739-1.752-1.907-1.752h-3.306v6.168H158.922z"/>
		<path fill="#A30046" d="M180.938,83.062h-0.049c-0.517,1.057-2.139,3.293-5.53,3.293c-2.311,0-6.243-1.18-6.243-6.686v-9.141
			c0-1.869-1.205-2.016-2.016-2.066v-0.244h6.636v0.244c-0.811,0.051-1.99,0.197-1.99,2.066v9.043c0,0.982,0.098,1.99,0.467,2.898
			c0.688,1.672,2.311,2.582,3.981,2.582c1.868,0,3.343-1.082,4.031-2.115c0.664-1.006,0.688-2.432,0.688-2.949v-9.459
			c0-1.869-1.204-2.016-2.016-2.066v-0.244h6.661v0.244c-0.836,0.051-2.016,0.197-2.016,2.066v13.318
			c0,1.844,1.204,1.99,2.016,2.016v0.246h-4.621V83.062z"/>
		<path fill="#A30046" d="M199.96,82.841v-8.949c0-1.439-0.973-1.537-1.596-1.576v-0.193h3.872v0.193
			c-0.643,0.039-1.595,0.137-1.595,1.576v12.566h-0.233l-10.369-11.672v9.533c0,1.518,0.992,1.576,1.575,1.594v0.195h-3.832v-0.195
			c0.584-0.018,1.576-0.096,1.576-1.594V74.048l-0.545-0.623c-0.02-0.02-0.059-0.039-0.078-0.078
			c-0.817-0.953-1.381-0.992-1.81-1.031v-0.193h3.425L199.96,82.841z"/>
		<path fill="#A30046" d="M209.261,86.109h-5.232v-0.195c0.584-0.018,1.576-0.096,1.576-1.594V73.892
			c0-1.459-0.974-1.537-1.576-1.576v-0.193h5.232v0.193c-0.583,0.039-1.575,0.117-1.575,1.576V84.32
			c0,1.518,0.992,1.576,1.575,1.594V86.109z"/>
		<path fill="#A30046" d="M215.876,72.123v0.193c-0.389,0-1.381,0-1.381,1.129c0,0.486,0.409,1.518,0.428,1.557l3.112,7.82
			l2.686-7.82c0,0,0.038-0.137,0.059-0.156c0.175-0.486,0.311-1.188,0.311-1.439c0-1.031-0.855-1.07-1.284-1.09v-0.193h4.027v0.193
			c-0.642,0.059-1.401,0.234-2.102,2.043c-0.039,0.078-0.233,0.604-0.252,0.643l-4.027,11.457h-0.155l-4.922-12.197
			c-0.02-0.057-0.039-0.115-0.078-0.156c0-0.018-0.039-0.096-0.078-0.174c-0.389-0.797-0.681-1.42-1.906-1.615v-0.193H215.876z"/>
		<path fill="#A30046" d="M231.383,78.814c0.351,0,1.789,0,1.906-1.439h0.195v3.443h-0.195c-0.078-0.953-0.72-1.479-1.771-1.479
			h-2.763v4.727c0,0.584-0.019,1.518,1.44,1.518h1.867c1.323,0,1.965-0.428,2.315-1.732h0.194l-0.409,2.258h-9.084v-0.195
			c0.583,0,1.595-0.059,1.595-1.633v-10.33c0-0.156,0.02-1.635-1.4-1.635h-0.194v-0.193h9.084v2.275h-0.193
			c0-1.303-0.74-1.752-1.907-1.752h-3.308v6.168H231.383z"/>
		<path fill="#A30046" d="M241.539,72.123c1.809,0,2.528,0.154,3.074,0.369c1.38,0.545,2.197,1.75,2.197,3.209
			c0,1.713-1.089,2.977-3.171,3.346v0.041c1.167,0.35,1.849,1.303,2.704,2.547l0.098,0.117l1.245,1.926
			c0,0.02,0.039,0.059,0.058,0.098c1.051,1.672,1.829,2.004,2.51,2.139v0.195h-3.307c-0.195-0.234-0.37-0.408-0.622-0.797
			c-0.078-0.098-0.37-0.506-0.409-0.545c-0.02-0.039-0.039-0.078-0.059-0.098l-1.867-2.84c-0.02-0.02-0.02-0.039-0.098-0.156
			c-0.02-0.039-0.914-1.479-1.809-1.926c-0.37-0.176-0.7-0.271-1.674-0.311v4.844c0,1.166,0.604,1.633,1.576,1.633v0.195h-5.252
			v-0.195c1.07,0,1.575-0.506,1.575-1.594V73.951c0-1.537-1.012-1.635-1.595-1.635v-0.193H241.539z M240.41,78.912
			c1.732,0,4.164-0.117,4.164-3.055c0-1.012-0.448-3.211-2.978-3.211c-0.35,0-0.875,0-1.187,0.117V78.912z"/>
		<path fill="#A30046" d="M258.718,75.021c-0.291-1.576-1.303-2.725-3.034-2.725c-1.634,0-2.471,1.148-2.471,2.295
			c0,1.518,1.4,2.471,2.859,3.387c2.004,1.264,3.619,2.236,3.619,4.473c0,0.877-0.233,1.945-1.284,2.92
			c-0.953,0.895-1.887,1.088-3.035,1.088c-0.934,0-1.653-0.193-2.179-0.408c-0.797-0.33-0.895-0.369-1.108-0.369
			s-0.525,0.098-0.564,0.584h-0.194l0.155-3.58h0.194c0.078,0.525,0.273,1.615,1.284,2.412c0.623,0.486,1.634,0.816,2.412,0.816
			c1.382,0,2.549-1.088,2.549-2.471c0-1.4-1.07-2.314-2.996-3.5c-1.653-1.031-3.326-2.082-3.326-4.416
			c0-1.693,1.167-3.736,4.065-3.736c0.642,0,1.362,0.098,1.887,0.273c0.233,0.078,0.584,0.174,0.798,0.174
			c0.02,0,0.428-0.018,0.525-0.467h0.194l-0.155,3.25H258.718z"/>
		<path fill="#A30046" d="M267.513,86.109h-5.232v-0.195c0.583-0.018,1.575-0.096,1.575-1.594V73.892
			c0-1.459-0.973-1.537-1.575-1.576v-0.193h5.232v0.193c-0.583,0.039-1.575,0.117-1.575,1.576V84.32
			c0,1.518,0.992,1.576,1.575,1.594V86.109z"/>
		<path fill="#A30046" d="M282.046,74.865h-0.194c-0.155-1.809-1.674-1.945-2.704-1.945h-2.354v11.4
			c0,1.518,0.992,1.576,1.596,1.594v0.195h-5.271v-0.195c0.622-0.018,1.595-0.117,1.595-1.594v-11.4h-2.354
			c-1.129,0-2.49,0.137-2.704,1.945h-0.195V71.48h0.195c0.077,0.232,0.175,0.311,0.467,0.447s1.381,0.195,1.789,0.195h7.685
			c1.265,0,1.557-0.078,1.828-0.156c0.292-0.078,0.39-0.313,0.429-0.486h0.194V74.865z"/>
		<path fill="#A30046" d="M288.331,72.123v0.193c-0.351,0-1.128,0-1.128,0.779c0,0.35,0.291,0.816,0.467,1.109l2.49,3.928
			l2.334-3.561c0,0,0.039-0.037,0.059-0.076c0.35-0.525,0.643-1.129,0.643-1.459c0-0.662-0.856-0.701-1.168-0.721v-0.193h4.222
			v0.193c-0.448,0.039-0.837,0.078-1.206,0.293c-0.7,0.408-1.654,1.828-1.712,1.926l-2.88,4.416v5.369
			c0,1.459,0.7,1.594,1.576,1.594v0.195h-5.232v-0.195c0.661,0,1.575-0.135,1.575-1.594v-5.273l-3.21-4.979
			c0-0.02-0.038-0.059-0.059-0.078c-0.019-0.039-0.058-0.098-0.446-0.643c-0.292-0.408-0.876-1.031-1.946-1.031v-0.193H288.331z"/>
		<path fill="#A30046" d="M14.673,83.111L9.561,68.189H5.248v0.236c0.782,0.047,1.902,0.402,1.611,1.5L2.507,83.455
			C2.138,84.585,1.449,85.765,0,85.863v0.246h4.719v-0.246c-0.418-0.025-1.475-0.098-1.475-1.426c0-0.27,0.098-0.885,0.295-1.475
			l1.303-4.055h5.678l1.475,4.35c0.271,0.787,0.295,1.057,0.295,1.279c0,1.277-1.205,1.301-1.77,1.326v0.246h6.857v-0.246
			C16.319,85.716,15.459,85.421,14.673,83.111z M5.112,78.046l2.457-7.717h0.05l2.605,7.717H5.112z"/>
	</g>
	<path fill="#A30046" d="M148.221,88.158"/>
	<path fill="#A30046" d="M80.978,88.158"/>
	<g>
		<path fill="#A30046" d="M216.761,57.335c0,0-0.951-1.058-2.531-2.75c-1.963-2.101-1.852-4.324-1.852-4.324v-9.307V0.023h-19.094
			v40.176c-0.236,3.807-3.965,4.778-6.033,4.712c-2.963-0.093-4.676-1.748-4.676-4.592l-0.004-40.281h-18.596l-0.004-0.016
			c-4.348,0-7.761,0.017-13.104,0.017c-10.173,0-19.781,1.556-23.019,9.995l-1.921-7.482c-0.472-1.469-2.079-2.528-3.663-2.528
			h-2.498L94.889,0.026h-1.846h-4.031c-0.477,0-0.65,0.15-0.4,0.489c0,0,0.9,0.864,2.535,2.727c2.271,2.586,1.378,6.046,1.378,6.046
			L80.359,57.822h17.714l2.555-10.663h17.096l2.666,10.663h18.204c1.785,0.001,3.604,0.001,5.13,0.001
			c9.571,0,17.358-0.976,21.209-6.936c2.871,5.433,9.049,7.988,19.949,7.049c3.795-0.326,7.525-2.102,9.127-4.915l0.734,2.339
			c0.639,1.411,1.936,2.454,3.785,2.454h8.604h1.488h7.74C216.839,57.814,217.013,57.674,216.761,57.335z M103.275,36.628
			l5.904-23.726l5.936,23.726H103.275z"/>
		<g>
			<path fill="#FFC425" stroke="#FFC425" stroke-width="0.3" d="M123.717,10.766l-0.005,0.004l-0.036,0.037l-0.011,0.011
				l0.011,0.011l0.038,0.035l3.271,3.035l0.07,0.065l0.021,0.02l0.003-0.029l0.013-0.095c0.069-0.508,0.16-1.019,0.27-1.519
				l0.008-0.035l0.002-0.011l-0.009-0.005l-0.031-0.019l-3.164-1.915l-0.035-0.021l-0.011-0.007l-0.008,0.009l-0.028,0.031
				l-0.004,0.005l-0.026,0.029l0.039-0.004l0.067-0.006l0.038-0.004l-0.031-0.023c-0.14-0.105-0.361-0.084-0.483,0.045
				c-0.061,0.064-0.091,0.151-0.084,0.238c0.008,0.085,0.05,0.162,0.12,0.214l0.026,0.02l-0.002-0.033l-0.005-0.075l-0.002-0.033
				L123.717,10.766z"/>
			<path fill="#FFC425" stroke="#FFC425" stroke-width="0.3" d="M120.546,14.9l-0.003,0.005l-0.028,0.042l-0.008,0.013l0.013,0.008
				l0.042,0.027l6.336,4.124l0.088,0.057l0.026,0.017l-0.003-0.031l-0.011-0.104c-0.07-0.661-0.106-1.348-0.106-2.043
				c0-0.028,0-0.057,0.001-0.085l0.001-0.072l0-0.035h-0.03l0.006-0.012l0.013-0.002c-0.002,0-0.017-0.006-0.03-0.012l-5.938-2.372
				l-0.04-0.016l-0.012-0.005l-0.007,0.011l-0.022,0.037l-0.003,0.005l-0.019,0.033l0.036-0.011l0.066-0.019l0.036-0.01
				l-0.033-0.018c-0.158-0.082-0.373-0.026-0.468,0.121c-0.046,0.072-0.061,0.161-0.039,0.244c0.023,0.085,0.08,0.155,0.16,0.196
				l0.03,0.015l-0.009-0.032l-0.019-0.072l-0.008-0.033L120.546,14.9z"/>
			<path fill="#FFC425" stroke="#FFC425" stroke-width="0.3" d="M118.226,19.464l-0.002,0.006l-0.021,0.046l-0.006,0.014
				l0.014,0.006l0.046,0.021l9.955,4.348l0.123,0.053l0.037,0.017l-0.017-0.037l-0.058-0.121c-0.422-0.89-0.753-1.854-0.984-2.868
				l-0.007-0.031l-0.002-0.009l-0.009-0.002l-0.031-0.007l-8.764-1.962l-0.043-0.009l-0.013-0.003l-0.005,0.012l-0.015,0.041
				l-0.002,0.006l-0.013,0.035l0.033-0.016l0.063-0.03l0.033-0.016l-0.035-0.012c-0.172-0.056-0.373,0.033-0.438,0.194
				c-0.032,0.078-0.029,0.163,0.007,0.241c0.037,0.08,0.108,0.143,0.195,0.171l0.032,0.01l-0.014-0.031l-0.03-0.068l-0.014-0.031
				L118.226,19.464z"/>
			<path fill="#FFC425" stroke="#FFC425" stroke-width="0.3" d="M153.501,41.603c0-4.144-4.644-5.738-10.022-7.585
				c-5.541-1.903-11.82-4.06-14.821-9.493l-0.013-0.024l-0.004-0.007l-0.008,0l-0.027-0.002l-11.614-0.732l-0.044-0.002
				l-0.014-0.001l-0.002,0.013l-0.008,0.043l-0.001,0.006l-0.006,0.036l0.03-0.021l0.057-0.041l0.03-0.021l-0.036-0.006
				c-0.181-0.028-0.363,0.091-0.396,0.262c-0.016,0.081,0.002,0.164,0.051,0.233c0.052,0.075,0.134,0.125,0.225,0.14l0.034,0.005
				l-0.019-0.029l-0.041-0.061l-0.02-0.028l-0.007,0.034l-0.001,0.006l-0.011,0.047l-0.003,0.014l0.014,0.003l0.047,0.012
				l11.672,2.996l0.004,0.001l0.001,0h0.001l0.004,0c0.034,0.002,0.064,0.018,0.084,0.041c0.015,0.019,0.022,0.041,0.021,0.063
				c-0.005,0.052-0.061,0.105-0.128,0.1c0,0-0.004,0-0.004,0h-0.001h-0.001l-0.004,0l-12.075,1.133l-0.047,0.005l-0.014,0.001
				l0,0.015l0.001,0.047v0.007l0.001,0.034l0.024-0.025l0.05-0.051l0.024-0.025h-0.035c-0.186,0-0.342,0.146-0.342,0.321
				c0,0.082,0.033,0.159,0.094,0.221c0.064,0.064,0.155,0.102,0.248,0.102h0.035l-0.024-0.025l-0.05-0.052l-0.024-0.025
				l-0.001,0.035v0.007l-0.001,0.047l0,0.014l0.014,0.002l0.047,0.004l12.059,1.133h0.004l0.001,0.001l0.001-0.001h0.004
				c0.064-0.006,0.12,0.035,0.125,0.089c0.003,0.028-0.007,0.059-0.027,0.083c-0.018,0.021-0.042,0.034-0.069,0.036l-0.004,0.001
				h-0.001h-0.001l-0.004,0.001l-11.664,2.993l-0.046,0.012l-0.014,0.003l0.003,0.015l0.01,0.047l0.001,0.006l0.007,0.034
				l0.02-0.028l0.042-0.06l0.02-0.029l-0.035,0.006c-0.091,0.015-0.173,0.064-0.225,0.14c-0.049,0.069-0.067,0.152-0.051,0.233
				c0.034,0.171,0.215,0.29,0.396,0.262l0.036-0.006L117,34.345l-0.057-0.042l-0.03-0.021l0.006,0.036l0.001,0.006l0.007,0.045
				l0.002,0.013h0.014l0.045-0.003l12.089-0.762h0.004h0.001h0.001l0.004-0.002c0.063-0.015,0.127,0.017,0.144,0.07
				c0.008,0.027,0.004,0.06-0.012,0.087c-0.014,0.025-0.036,0.042-0.062,0.048l-0.004,0.001l-0.001,0.001h-0.001l-0.004,0.002
				l-10.897,4.758l-0.045,0.02l-0.014,0.007l0.006,0.014l0.02,0.045l0.002,0.006l0.013,0.031l0.014-0.031l0.031-0.066l0.014-0.031
				l-0.032,0.011c-0.086,0.028-0.158,0.091-0.195,0.171c-0.037,0.078-0.039,0.163-0.007,0.241c0.065,0.162,0.266,0.25,0.438,0.194
				l0.036-0.012l-0.034-0.017l-0.062-0.029l-0.034-0.017l0.013,0.035l0.002,0.006l0.015,0.041l0.005,0.013l0.012-0.003l0.043-0.01
				l11.75-2.631h0.004l0.001-0.001h0.001l0.004-0.002c0.057-0.023,0.143,0.007,0.17,0.061c0.011,0.021,0.012,0.045,0.003,0.069
				c-0.011,0.03-0.034,0.055-0.063,0.066l-0.004,0.002h-0.001l-0.001,0.001l-0.004,0.003l-9.799,6.375l-0.042,0.027l-0.013,0.008
				l0.008,0.013l0.028,0.042l0.003,0.006l0.019,0.027l0.009-0.032l0.019-0.072l0.008-0.032l-0.03,0.015
				c-0.08,0.042-0.137,0.111-0.16,0.197c-0.022,0.082-0.008,0.171,0.039,0.243c0.095,0.147,0.309,0.203,0.468,0.121l0.034-0.018
				l-0.037-0.011l-0.066-0.019l-0.037-0.011l0.02,0.033l0.003,0.005l0.022,0.037l0.006,0.011l0.012-0.005l0.04-0.016l11.053-4.415
				l0.004-0.001l0.001-0.001l0.001-0.001l0.004-0.003c0.053-0.033,0.129-0.021,0.166,0.025c0.021,0.026,0.03,0.063,0.024,0.097
				c-0.003,0.017-0.011,0.04-0.034,0.054l-0.004,0.003l-0.001,0.001h-0.001l-0.003,0.004l-8.413,7.8l-0.038,0.035l-0.011,0.011
				l0.011,0.011l0.036,0.036l0.005,0.005l0.023,0.023l0.002-0.032l0.006-0.075l0.002-0.033l-0.026,0.02
				c-0.07,0.054-0.112,0.129-0.12,0.215c-0.008,0.086,0.022,0.173,0.083,0.238c0.122,0.13,0.343,0.15,0.483,0.045l0.031-0.022
				l-0.038-0.005l-0.068-0.007l-0.038-0.004l0.025,0.029l0.004,0.005l0.027,0.031l0.008,0.01l0.011-0.007l0.036-0.021l10.03-6.068
				l0.004-0.002l0.001-0.001l0.001-0.001l0.003-0.004c0.046-0.04,0.123-0.04,0.168,0c0.054,0.049,0.062,0.077,0.062,0.09
				c0,0.005,0,0.022-0.037,0.056l-0.004,0.003l-0.001,0.001l-0.001,0.001l-0.003,0.004l-6.777,8.996l-0.031,0.04l-0.009,0.013
				l0.012,0.009l0.042,0.03l0.005,0.004l0.027,0.02l-0.003-0.033l-0.007-0.075l-0.003-0.033l-0.023,0.024
				c-0.057,0.063-0.085,0.142-0.078,0.226c0.007,0.088,0.054,0.171,0.128,0.227c0.144,0.108,0.366,0.094,0.484-0.032l0.026-0.028
				l-0.039,0.003l-0.067,0.005l-0.039,0.003l0.03,0.023l0.005,0.005l0.032,0.025l0.01,0.008l0.009-0.009l0.032-0.026l8.696-7.532
				l0.004-0.004l0.001-0.001l0.001-0.001l0.003-0.004c0.038-0.048,0.114-0.061,0.163-0.026c0.042,0.029,0.067,0.063,0.072,0.094
				c0.003,0.021-0.003,0.039-0.017,0.058l-0.003,0.005h-0.001l-0.001,0.002l-0.002,0.004l-4.924,9.898l-0.022,0.046l-0.006,0.013
				l0.013,0.007l0.045,0.022l0.006,0.003l0.03,0.015l-0.009-0.032l-0.02-0.072l-0.009-0.032l-0.018,0.028
				c-0.044,0.068-0.057,0.149-0.035,0.229c0.023,0.087,0.085,0.163,0.17,0.207c0.163,0.084,0.379,0.034,0.471-0.109l0.021-0.032
				l-0.037,0.01l-0.066,0.017l-0.037,0.01l0.034,0.018l0.006,0.004l0.037,0.021l0.011,0.006l0.008-0.01l0.026-0.032l4.992-6.164
				l0.016-0.02l-0.024-0.004l-0.087-0.02l-0.024-0.005l0.006,0.023l0.003,0.012l0.025,0.096l0.008,0.029l0.019-0.023l0.062-0.077
				l2.209-2.728l0.027-0.034l-0.042,0.01l-0.06,0.014l-0.042,0.011l0.04,0.018c1.451,0.674,2.877,1.104,4.014,1.215
				c3.387,0.326,6.552-0.436,8.261-1.988C153.052,43.668,153.501,42.702,153.501,41.603z"/>
		</g>
		<g>
			<path fill="#FFC425" stroke="#FFC425" stroke-width="0.3" d="M169.321,50.964l0.006-0.004l0.043-0.029l0.012-0.009l-0.01-0.013
				l-0.029-0.041l-2.621-3.481l-0.059-0.077l-0.018-0.023l-0.01,0.028l-0.029,0.092c-0.16,0.504-0.342,0.995-0.541,1.461
				L166.05,48.9l-0.004,0.01l0.008,0.008l0.029,0.024l2.715,2.352l0.031,0.027l0.01,0.008l0.008-0.007l0.033-0.025l0.006-0.004
				l0.031-0.024l-0.041-0.003l-0.066-0.006l-0.039-0.003l0.027,0.028c0.119,0.126,0.34,0.142,0.484,0.033
				c0.074-0.056,0.119-0.139,0.127-0.227c0.008-0.084-0.02-0.164-0.076-0.226l-0.023-0.023l-0.004,0.032L169.3,50.95l-0.004,0.033
				L169.321,50.964z"/>
			<path fill="#FFC425" stroke="#FFC425" stroke-width="0.3" d="M173.245,47.388l0.004-0.005l0.037-0.036l0.01-0.012l-0.01-0.011
				l-0.039-0.035l-5.598-5.192l-0.078-0.071l-0.021-0.022l-0.004,0.032l-0.006,0.104c-0.053,0.784-0.137,1.551-0.248,2.28
				l-0.006,0.032l-0.002,0.011l0.01,0.005l0.027,0.018l5.471,3.311l0.035,0.021l0.012,0.006l0.008-0.009l0.027-0.03l0.004-0.005
				l0.027-0.029l-0.039,0.004l-0.068,0.006l-0.037,0.004l0.031,0.023c0.139,0.105,0.359,0.085,0.482-0.045
				c0.061-0.065,0.092-0.152,0.084-0.239c-0.008-0.085-0.051-0.161-0.121-0.214l-0.025-0.02l0.002,0.033l0.006,0.075l0.002,0.032
				L173.245,47.388z"/>
			<path fill="#FFC425" stroke="#FFC425" stroke-width="0.3" d="M176.415,43.255l0.004-0.006l0.029-0.043l0.01-0.013l-0.014-0.008
				l-0.043-0.028l-8.863-5.768l-0.092-0.06l-0.029-0.019l0.006,0.033l0.016,0.109c0.115,0.781,0.174,1.604,0.174,2.443l-0.002,0.291
				l-0.002,0.123v0.034h0.029l-0.006,0.013l-0.014,0.002c0.002,0,0.02,0.008,0.031,0.012l8.398,3.356l0.039,0.016l0.012,0.005
				l0.006-0.011l0.023-0.037l0.002-0.005l0.02-0.033l-0.035,0.011l-0.066,0.019l-0.037,0.01l0.035,0.018
				c0.158,0.082,0.371,0.027,0.467-0.121c0.047-0.072,0.061-0.16,0.039-0.243c-0.023-0.085-0.08-0.154-0.16-0.195l-0.029-0.016
				l0.008,0.032l0.018,0.072l0.008,0.032L176.415,43.255z"/>
			<path fill="#FFC425" stroke="#FFC425" stroke-width="0.3" d="M180.856,29.086c0-0.08-0.033-0.159-0.094-0.22
				c-0.066-0.064-0.156-0.102-0.248-0.102h-0.035l0.025,0.025l0.049,0.051l0.025,0.025v-0.035v-0.007l0.002-0.047v-0.014
				l-0.014-0.001l-0.047-0.004l-12.063-1.134l-0.004,0h-0.002h-0.002l-0.004,0c-0.061,0.005-0.109-0.035-0.115-0.092
				c-0.004-0.03,0.006-0.06,0.023-0.082c0.014-0.014,0.033-0.031,0.066-0.034l0.006,0h0.002v0l0.004-0.001l11.664-2.992l0.047-0.012
				l0.016-0.004l-0.004-0.014l-0.012-0.048l-0.002-0.006l-0.008-0.034l-0.018,0.029l-0.041,0.061l-0.02,0.029l0.033-0.006
				c0.092-0.014,0.174-0.065,0.225-0.139c0.049-0.07,0.068-0.153,0.053-0.234c-0.033-0.17-0.215-0.29-0.396-0.262l-0.037,0.006
				l0.031,0.021l0.057,0.041l0.029,0.021l-0.006-0.037l-0.002-0.006l-0.008-0.044l-0.002-0.013l-0.014,0.001l-0.043,0.002
				l-12.104,0.762h-0.004h-0.002v0l-0.006,0.001c-0.061,0.015-0.119-0.016-0.137-0.071c-0.008-0.028-0.004-0.06,0.01-0.085
				c0.008-0.015,0.025-0.035,0.059-0.043l0.004-0.001v0l0.002,0l0.004-0.001l10.91-4.764l0.047-0.02l0.014-0.006l-0.006-0.014
				l-0.02-0.046l-0.004-0.006l-0.014-0.031l-0.014,0.031l-0.029,0.067l-0.016,0.031l0.033-0.011c0.088-0.028,0.158-0.09,0.195-0.171
				c0.035-0.078,0.039-0.164,0.006-0.242c-0.064-0.161-0.266-0.25-0.438-0.194l-0.035,0.012l0.033,0.016l0.063,0.03l0.033,0.017
				l-0.012-0.035l-0.004-0.006l-0.014-0.042l-0.006-0.012l-0.012,0.002l-0.043,0.01l-11.781,2.635l-0.004,0.001h-0.002v0
				l-0.006,0.002c-0.061,0.025-0.141,0.004-0.166-0.043c-0.012-0.022-0.012-0.049-0.004-0.075c0.012-0.028,0.031-0.05,0.059-0.062
				l0.004-0.002h0.002l0.002-0.001l0.002-0.002l9.832-6.396l0.045-0.028l0.012-0.008l-0.008-0.013l-0.029-0.042l-0.004-0.005
				l-0.02-0.028l-0.008,0.032l-0.018,0.073l-0.008,0.032l0.029-0.015c0.08-0.042,0.137-0.111,0.158-0.197
				c0.023-0.082,0.008-0.171-0.037-0.243c-0.096-0.147-0.309-0.203-0.469-0.121l-0.033,0.018l0.037,0.01l0.064,0.018l0.037,0.011
				l-0.02-0.033l-0.004-0.005l-0.021-0.036l-0.006-0.01l-0.012,0.004l-0.039,0.016l-11.102,4.432l-0.004,0.002l-0.002,0v0
				l-0.004,0.002c-0.055,0.035-0.121,0.026-0.156-0.019c-0.02-0.024-0.027-0.057-0.023-0.086c0.004-0.017,0.014-0.04,0.037-0.056
				l0.004-0.002l0.002,0v-0.001l0.004-0.003l8.445-7.832l0.039-0.035l0.012-0.011l-0.012-0.011l-0.035-0.037l-0.004-0.004
				l-0.025-0.024l-0.002,0.033l-0.006,0.075l-0.002,0.033l0.027-0.02c0.068-0.052,0.111-0.128,0.119-0.214
				c0.008-0.087-0.023-0.174-0.084-0.238c-0.121-0.13-0.344-0.151-0.482-0.045l-0.031,0.023l0.039,0.004l0.066,0.006l0.039,0.004
				l-0.025-0.029l-0.004-0.005c-0.002,0-0.029-0.031-0.029-0.031l-0.008-0.009l-0.012,0.007l-0.035,0.021l-10.078,6.096
				l-0.004,0.002l-0.002,0.001l-0.002,0.001l-0.002,0.003c-0.045,0.039-0.119,0.035-0.168-0.009
				c-0.02-0.018-0.031-0.042-0.031-0.066s0.012-0.048,0.031-0.066l0.004-0.003l0.002-0.001v-0.001l0.004-0.004l6.799-9.027
				l0.031-0.041l0.01-0.012l-0.014-0.009l-0.041-0.03l-0.006-0.003l-0.027-0.02l0.004,0.033l0.008,0.075l0.004,0.033l0.021-0.024
				c0.059-0.062,0.086-0.141,0.078-0.225c-0.008-0.089-0.055-0.171-0.129-0.227c-0.143-0.108-0.365-0.094-0.482,0.032l-0.027,0.028
				l0.039-0.003l0.066-0.005l0.039-0.003l-0.029-0.024l-0.006-0.004l-0.033-0.025l-0.01-0.008l-0.01,0.008l-0.029,0.027
				l-8.742,7.569l-0.004,0.003l-0.002,0.001v0.001l-0.002,0.004c-0.039,0.049-0.113,0.064-0.164,0.032
				c-0.029-0.018-0.049-0.046-0.055-0.075c-0.002-0.014-0.002-0.035,0.014-0.055l0.004-0.004v-0.001l0.002-0.001l0.002-0.004
				l4.955-9.961l0.021-0.044l0.006-0.014l-0.014-0.007l-0.043-0.022l-0.008-0.003l-0.029-0.015l0.01,0.033l0.02,0.071l0.008,0.033
				l0.018-0.028c0.045-0.068,0.057-0.149,0.037-0.229c-0.025-0.088-0.086-0.163-0.172-0.207c-0.162-0.084-0.379-0.035-0.471,0.108
				l-0.02,0.032l0.037-0.009l0.066-0.017l0.035-0.009l-0.033-0.018l-0.006-0.003l-0.037-0.02l-0.01-0.006l-0.008,0.01l-0.027,0.032
				l-1.322,1.631l-0.014,0.017l0.021,0.007l0.088,0.031l0.021,0.007V5.72V5.711V5.57V5.528l-0.027,0.033l-0.09,0.109l-6.007,7.391
				l-0.027,0.033l0.041-0.009l0.061-0.013l0.043-0.009l-0.039-0.019c-2.016-0.981-5.437-1.584-7-1.584
				c-0.029,0-0.078-0.001-0.14-0.003c-3.205-0.079-5.59,0.553-6.896,1.827c-0.755,0.737-1.138,1.688-1.138,2.827
				c0,1.566,0.884,2.849,2.78,4.038c1.696,1.063,4.05,1.952,6.544,2.894c3.252,1.229,6.94,2.621,9.961,4.704
				c3.465,2.389,5.506,5.31,6.24,8.932l0.008,0.032v0.009l0.01,0.002l0.031,0.007l11.113,2.489l0.043,0.01l0.014,0.002l0.004-0.012
				l0.016-0.04l0.002-0.006l0.014-0.035l-0.035,0.017l-0.061,0.029l-0.035,0.016l0.037,0.012c0.172,0.057,0.371-0.032,0.438-0.194
				c0.031-0.078,0.029-0.163-0.008-0.241c-0.037-0.08-0.107-0.143-0.193-0.171l-0.033-0.01l0.014,0.03l0.031,0.067l0.014,0.03
				l0.014-0.03l0.002-0.006l0.02-0.046l0.006-0.014l-0.014-0.006l-0.045-0.021l-10.889-4.756l-0.004-0.002l-0.002-0.001h-0.002
				l-0.004-0.001c-0.025-0.006-0.045-0.022-0.059-0.047c-0.018-0.028-0.021-0.062-0.014-0.09c0.018-0.054,0.08-0.085,0.145-0.07
				l0.004,0.001l0.002,0.001l0,0h0.004l12.084,0.763l0.045,0.003l0.014,0.001l0.002-0.014l0.008-0.043v-0.007l0.006-0.036
				l-0.029,0.021l-0.057,0.04l-0.029,0.022l0.035,0.005c0.182,0.029,0.363-0.091,0.396-0.262c0.016-0.08-0.002-0.163-0.051-0.233
				c-0.053-0.074-0.135-0.125-0.225-0.139l-0.035-0.006l0.02,0.028l0.041,0.061l0.02,0.028l0.008-0.034l0.002-0.006l0.01-0.047
				l0.002-0.015l-0.014-0.004l-0.047-0.012l-11.65-2.99l-0.004-0.002h-0.002h-0.002l-0.004-0.001
				c-0.031-0.002-0.059-0.017-0.08-0.04c-0.018-0.021-0.025-0.046-0.021-0.071c0.004-0.051,0.057-0.105,0.125-0.1l0.004,0.001h0.002
				v-0.001h0.004l12.057-1.131l0.047-0.004l0.014-0.001v-0.015l-0.002-0.047v-0.006v-0.036l-0.025,0.025l-0.051,0.053l-0.023,0.025
				h0.035c0.092,0,0.182-0.038,0.248-0.103C180.823,29.246,180.856,29.168,180.856,29.086z"/>
		</g>
		<path fill="#A30046" d="M217.454,0c1.273,0,2.311,1.037,2.311,2.311c0,1.273-1.037,2.31-2.311,2.31s-2.311-1.037-2.311-2.31
			C215.144,1.037,216.181,0,217.454,0z M217.46,4.275c1.063,0,1.863-0.857,1.863-1.964c0-1.107-0.801-1.965-1.863-1.965
			c-1.074,0-1.875,0.857-1.875,1.965C215.585,3.417,216.386,4.275,217.46,4.275z M216.571,0.954h1.037
			c0.619,0,0.928,0.25,0.928,0.762c0,0.435-0.275,0.749-0.697,0.749l0.768,1.197h-0.467l-0.756-1.197h-0.371v1.197h-0.441V0.954z
			 M217.013,2.118h0.525c0.338,0,0.557-0.07,0.557-0.422c0-0.307-0.275-0.396-0.557-0.396h-0.525V2.118z"/>
	</g>
</g>
</svg>
