<?xml version="1.0" encoding="UTF-8" standalone="no"?>
<!-- Created with Inkscape (http://www.inkscape.org/) -->
<svg
   xmlns:dc="http://purl.org/dc/elements/1.1/"
   xmlns:cc="http://creativecommons.org/ns#"
   xmlns:rdf="http://www.w3.org/1999/02/22-rdf-syntax-ns#"
   xmlns:svg="http://www.w3.org/2000/svg"
   xmlns="http://www.w3.org/2000/svg"
   xmlns:sodipodi="http://sodipodi.sourceforge.net/DTD/sodipodi-0.dtd"
   xmlns:inkscape="http://www.inkscape.org/namespaces/inkscape"
   version="1.0"
   width="750"
   height="450"
   viewBox="0 0 0.601173 0.504438"
   id="svg2"
   xml:space="preserve"
   style="fill-rule:evenodd"
   sodipodi:version="0.32"
   inkscape:version="0.46"
   sodipodi:docname="Flag_of_Phoenix.svg"
   inkscape:output_extension="org.inkscape.output.svg.inkscape"><metadata
   id="metadata9"><rdf:RDF><cc:Work
       rdf:about=""><dc:format>image/svg+xml</dc:format><dc:type
         rdf:resource="http://purl.org/dc/dcmitype/StillImage" /><dc:title>Flag of Phoenix, Arizona</dc:title><dc:date>2009.09.12</dc:date><dc:creator><cc:Agent><dc:title>Sören Gasch</dc:title></cc:Agent></dc:creator><dc:source>http://www.crwflags.com/fotw/flags/us-az-px.html</dc:source><dc:description>Flag of the city Phoenix within the state Arizona of the United States of America</dc:description><cc:license
         rdf:resource="http://creativecommons.org/licenses/publicdomain/" /></cc:Work><cc:License
       rdf:about="http://creativecommons.org/licenses/publicdomain/"><cc:permits
         rdf:resource="http://creativecommons.org/ns#Reproduction" /><cc:permits
         rdf:resource="http://creativecommons.org/ns#Distribution" /><cc:permits
         rdf:resource="http://creativecommons.org/ns#DerivativeWorks" /></cc:License></rdf:RDF></metadata><sodipodi:namedview
   inkscape:window-height="749"
   inkscape:window-width="1024"
   inkscape:pageshadow="2"
   inkscape:pageopacity="0.0"
   guidetolerance="10.0"
   gridtolerance="10.0"
   objecttolerance="10.0"
   borderopacity="1.0"
   bordercolor="#666666"
   pagecolor="#ffffff"
   id="base"
   showgrid="false"
   inkscape:zoom="1"
   inkscape:cx="375"
   inkscape:cy="225"
   inkscape:window-x="-4"
   inkscape:window-y="-4"
   inkscape:current-layer="svg2" />
 <defs
   id="defs4"><inkscape:perspective
   sodipodi:type="inkscape:persp3d"
   inkscape:vp_x="0 : 108 : 1"
   inkscape:vp_y="0 : 1000 : 0"
   inkscape:vp_z="369 : 108 : 1"
   inkscape:persp3d-origin="184.5 : 72 : 1"
   id="perspective11" />
  <style
   type="text/css"
   id="style6" />
 
  
  
  
  
  
  
  
  
  
  
  
  
  
  
  
 </defs>
 
<g
   id="g2406"><rect
     width="0.84073001"
     height="0.50443798"
     x="-0.11977851"
     y="8.4819796e-09"
     id="rect2417"
     style="fill:#660033;fill-opacity:1;stroke:none;stroke-width:3;stroke-linecap:square;stroke-linejoin:miter;stroke-miterlimit:4;stroke-dasharray:none;stroke-dashoffset:0;stroke-opacity:1" /><path
     d="M 0.33115039,0.11334197 C 0.40906288,0.12795729 0.44640415,0.1801646 0.44640415,0.25243756 C 0.44640415,0.32471052 0.38110569,0.39825502 0.30058669,0.39825502 C 0.27072167,0.39825502 0.24295731,0.38926461 0.21983551,0.37385389 C 0.25551857,0.38973217 0.29779227,0.38999064 0.33531203,0.37091286 C 0.34452663,0.36622571 0.35297157,0.36062034 0.3605909,0.35426051 C 0.3561204,0.35726249 0.35143014,0.36003091 0.34650806,0.36253152 C 0.28073938,0.39597332 0.20028436,0.36976068 0.16684127,0.30399021 C 0.16280631,0.29605552 0.15964997,0.28790459 0.15731705,0.27965091 C 0.15565102,0.27083314 0.15476883,0.26173913 0.15476883,0.25243729 C 0.15476883,0.23761909 0.15698829,0.22331836 0.16109934,0.20984325 C 0.16358395,0.23910812 0.17676858,0.26752773 0.20032888,0.28870457 C 0.20719057,0.29486736 0.21456785,0.30009544 0.22229972,0.30439067 C 0.21837195,0.30163647 0.22955462,0.31209845 0.21089635,0.29532865 C 0.19223806,0.27855885 0.16288152,0.21947021 0.17468262,0.17886116 C 0.17699194,0.17091399 0.18255147,0.16296909 0.18893673,0.15866587 C 0.17758585,0.19326655 0.1914329,0.22778357 0.22801677,0.24517581 C 0.2349167,0.24845449 0.24224775,0.250948 0.24988036,0.25269676 L 0.24988036,0.25234931 C 0.25256293,0.25308112 0.25538653,0.25347215 0.2583009,0.25347215 C 0.27593151,0.25347215 0.2902301,0.23917356 0.2902301,0.22154294 C 0.2902301,0.20391232 0.27593151,0.18961373 0.2583009,0.18961373 C 0.2469545,0.18961373 0.23698804,0.19553851 0.23132531,0.20445907 C 0.23131552,0.20407916 0.23130529,0.20368054 0.23130529,0.20329573 C 0.23130529,0.18156116 0.24998135,0.16393496 0.27301097,0.16393496 C 0.28720677,0.1118763 0.3433347,0.18597876 0.37009387,0.18582926 C 0.36622306,0.18716475 0.36475766,0.18833298 0.35981513,0.19163437 C 0.35487264,0.19493575 0.35800629,0.21807298 0.36009317,0.23819665 C 0.36218006,0.25832034 0.35122157,0.2642478 0.34679377,0.27720773 C 0.40613677,0.24366277 0.40313074,0.18046326 0.35305619,0.13863263 C 0.38751223,0.15334224 0.40389993,0.18543117 0.41428056,0.2216656 C 0.41524903,0.17893276 0.40437643,0.15224275 0.34631953,0.12047176 L 0.33115034,0.11334182 L 0.33115039,0.11334197 z M 0.28958214,0.162497 L 0.30612684,0.16844758 L 0.29397696,0.1564837 L 0.29397607,0.15648503 C 0.29394894,0.15645788 0.29392047,0.15643164 0.29388977,0.15640806 C 0.29307878,0.15578434 0.29139494,0.1566078 0.29013418,0.15824939 C 0.28887252,0.15989317 0.2885064,0.16172959 0.28932228,0.16235552 C 0.28940103,0.16241647 0.28948867,0.16246274 0.28958253,0.16249654 L 0.28958209,0.162497 L 0.28958214,0.162497 z M 0.26665262,0.11382196 C 0.25671601,0.11870887 0.21808483,0.14201519 0.21310143,0.18108897 C 0.20926888,0.2111399 0.23446675,0.23722574 0.26447992,0.24728608 C 0.22661616,0.24622152 0.19717331,0.21710521 0.19716794,0.1805707 C 0.19716261,0.14403619 0.23441734,0.11382196 0.26665262,0.11382196 z"
     id="path10"
     style="fill:#ffffff" /></g></svg>