<?xml version="1.0" encoding="UTF-8" standalone="no"?>
<!-- Creator: CorelDRAW -->

<svg
   xmlns:dc="http://purl.org/dc/elements/1.1/"
   xmlns:cc="http://creativecommons.org/ns#"
   xmlns:rdf="http://www.w3.org/1999/02/22-rdf-syntax-ns#"
   xmlns:svg="http://www.w3.org/2000/svg"
   xmlns="http://www.w3.org/2000/svg"
   xmlns:sodipodi="http://sodipodi.sourceforge.net/DTD/sodipodi-0.dtd"
   xmlns:inkscape="http://www.inkscape.org/namespaces/inkscape"
   xml:space="preserve"
   width="3.79842in"
   height="3.18722in"
   style="shape-rendering:geometricPrecision; text-rendering:geometricPrecision; image-rendering:optimizeQuality; fill-rule:evenodd; clip-rule:evenodd"
   viewBox="0 0 0.601173 0.504438"
   id="svg2"
   version="1.1"
   inkscape:version="0.47 r22583"
   sodipodi:docname="ZZ2.svg"><metadata
   id="metadata28"><rdf:RDF><cc:Work
       rdf:about=""><dc:format>image/svg+xml</dc:format><dc:type
         rdf:resource="http://purl.org/dc/dcmitype/StillImage" /></cc:Work></rdf:RDF></metadata><sodipodi:namedview
   pagecolor="#ffffff"
   bordercolor="#666666"
   borderopacity="1"
   objecttolerance="10"
   gridtolerance="10"
   guidetolerance="10"
   inkscape:pageopacity="0"
   inkscape:pageshadow="2"
   inkscape:window-width="1280"
   inkscape:window-height="1004"
   id="namedview26"
   showgrid="false"
   inkscape:zoom="0.82273016"
   inkscape:cx="170.92889"
   inkscape:cy="143.42491"
   inkscape:window-x="-8"
   inkscape:window-y="-8"
   inkscape:window-maximized="1"
   inkscape:current-layer="svg2" />
 <defs
   id="defs4"><inkscape:perspective
   sodipodi:type="inkscape:persp3d"
   inkscape:vp_x="0 : 143.42491 : 1"
   inkscape:vp_y="0 : 1000 : 0"
   inkscape:vp_z="341.85779 : 143.42491 : 1"
   inkscape:persp3d-origin="170.92889 : 95.616608 : 1"
   id="perspective30" />
  <style
   type="text/css"
   id="style6">
   
    .fil0 {fill:#CC3300}
    .fil1 {fill:#1F1A17;fill-rule:nonzero}
   
  </style>
 <inkscape:perspective
   id="perspective2844"
   inkscape:persp3d-origin="0.5 : 0.33333333 : 1"
   inkscape:vp_z="1 : 0.5 : 1"
   inkscape:vp_y="0 : 1000 : 0"
   inkscape:vp_x="0 : 0.5 : 1"
   sodipodi:type="inkscape:persp3d" /></defs>
 <g
   id="trace">
  <metadata
   id="CorelCorpID_0Corel-Layer" />
  <path
   class="fil0"
   d="M0.343396 0c0.109128,0.0204709 0.16143,0.093595 0.16143,0.194824 0,0.101229 -0.0914602,0.204239 -0.204239,0.204239 -0.0418304,0 -0.0807185,-0.0125924 -0.113104,-0.0341774 0.0499794,0.0222399 0.10919,0.0226019 0.161742,-0.00411936 0.0129064,-0.00656505 0.0247348,-0.0144162 0.0354068,-0.0233241 -0.0062616,0.00420472 -0.012831,0.00808231 -0.0197251,0.0115848 -0.0921188,0.0468402 -0.204808,0.0101255 -0.25165,-0.0819958 -0.00565158,-0.0111137 -0.0100725,-0.0225303 -0.0133401,-0.0340908 -0.00233353,-0.0123506 -0.00356915,-0.0250881 -0.00356915,-0.0381167 0,-0.0207551 0.00310868,-0.0407854 0.00886681,-0.0596593 0.00348005,0.0409898 0.0219471,0.0807957 0.0549468,0.110457 0.0096108,0.00863189 0.0199438,0.0159546 0.0307734,0.0219707 -0.00550141,-0.00385765 0.0101616,0.0107959 -0.0159721,-0.0126927 -0.0261337,-0.0234886 -0.0672519,-0.106251 -0.0507227,-0.16313 0.00323455,-0.0111312 0.0110215,-0.0222592 0.019965,-0.0282865 -0.0158986,0.0484634 0.00349625,0.0968096 0.0547374,0.12117 0.00966438,0.0045923 0.0199326,0.00808481 0.0306232,0.0105342l0 -0.000486646c0.00375733,0.00102501 0.00771219,0.00157272 0.0117942,0.00157272 0.0246943,0 0.0447216,-0.0200273 0.0447216,-0.0447216 0,-0.0246943 -0.0200273,-0.0447216 -0.0447216,-0.0447216 -0.0158923,0 -0.0298518,0.00829853 -0.0377833,0.0207931 -1.37083e-005,-0.000532133 -2.80398e-005,-0.00109044 -2.80398e-005,-0.00162942 0,-0.0304425 0.0261586,-0.0551306 0.058415,-0.0551306 0.0198833,-0.0729159 0.0984988,0.0308756 0.135979,0.0306662 -0.00542165,0.00187057 -0.00747416,0.00350684 -0.0143969,0.00813092 -0.00692271,0.00462407 -0.00253355,0.0370312 0.000389442,0.0652174 0.00292299,0.0281862 -0.012426,0.0364885 -0.0186278,0.0546408 0.0831187,-0.0469847 0.0789083,-0.135505 0.00877147,-0.194095 0.0482608,0.020603 0.0712142,0.0655483 0.0857538,0.1163 0.0013565,-0.0598537 -0.0138722,-0.097237 -0.0951895,-0.141737l-0.0212467 -0.00998653zm-0.0582225 0.0688489l0.0231733 0.00833467 -0.0170177 -0.0167572 -1.24621e-006 1.86932e-006c-3.80095e-005,-3.80095e-005 -7.78883e-005,-7.47728e-005 -0.000120883,-0.000107797 -0.00113592,-0.000873595 -0.00349438,0.000279775 -0.00526027,0.00257904 -0.00176713,0.00230238 -0.00227995,0.00487456 -0.00113717,0.00575127 0.00011029,8.53656e-005 0.000233042,0.000150169 0.000364517,0.000197525l-6.23107e-007 6.23107e-007zm-0.0321162 -0.0681766c-0.0139177,0.00684483 -0.0680264,0.0394888 -0.0750064,0.0942174 -0.00536806,0.0420908 0.0299253,0.0786279 0.0719632,0.0927189 -0.0530338,-0.00149109 -0.0942729,-0.0422728 -0.0942804,-0.0934448 -7.47728e-006,-0.051172 0.0521733,-0.0934915 0.0973236,-0.0934915z"
   id="path10"
   style="fill:#a81a5b;fill-opacity:1" />
  <path
   class="fil1"
   d="M0.0446232 0.474416c-0.00347631,0.00120633 -0.00681055,0.00191543 -0.0102869,0.00191543 -0.0078742,0 -0.0135501,-0.00432747 -0.0135501,-0.0128404 0,-0.00808792 0.00610146,-0.0124154 0.0141888,-0.0124154 0.00319217,0 0.00638497,0.000851787 0.00950611,0.00184502l0 -0.0130541c-0.0051076,-0.000922198 -0.00822937,-0.00156026 -0.013479,-0.00156026 -0.0158911,0 -0.0296543,0.0083004 -0.0296543,0.0249006 0,0.0176651 0.0131955,0.0263319 0.0296543,0.0263319 0.00482409,0 0.0100738,-0.00100507 0.0136211,-0.0019983l0 -0.0131245z"
   id="path12" />
  <path
   id="1"
   class="fil1"
   d="M0.0495183 0.488676l0.0178775 0 0 -0.0369614 -0.0178775 0 0 0.0369614zm0.0178775 -0.0532071l-0.0178775 0 0 0.0123437 0.0178775 0 0 -0.0123437z" />
  <path
   id="12"
   class="fil1"
   d="M0.0709432 0.451715l0 0.0106414 0.00631394 0 0 0.0127699c0,0.00979025 0.00446954,0.0144131 0.0136921,0.0144131 0.00439851,0 0.00837144,-0.000780129 0.0122733,-0.00192727l0 -0.0106414c-0.00127737,0.000425582 -0.00255411,0.000638684 -0.00418603,0.000638684 -0.00234101,0 -0.00390189,-0.00170295 -0.00390189,-0.00482409l0 -0.0104289 0.00808792 0 0 -0.0106414 -0.00808792 0 0 -0.0139757 -0.0178775 0.00546277 0 0.00851288 -0.00631394 0z" />
  <path
   id="123"
   class="fil1"
   d="M0.102856 0.451715l0.00944692 0.0258944c0.00127737,0.00411437 0.00397293,0.00950611 0.00397293,0.0122852 0,0.00191543 -0.00205687,0.00347569 -0.00560422,0.00347569 -0.00248308,0 -0.00390189,-0.000283513 -0.00532071,-0.000709095l0 0.0104993c0.00347631,0.00056765 0.00702303,0.00127737 0.0117057,0.00127737 0.0139757,0 0.0173099,-0.0101454 0.0208572,-0.0217919l0.00979025 -0.030931 -0.0171685 0 -0.00439851 0.0227016 -0.000142068 0 -0.00461099 -0.0227016 -0.0185281 0z" />
  <path
   id="1234"
   class="fil1"
   d="M0.174733 0.469521c0,0.0127699 0.00794585,0.0200179 0.0229147,0.0200179 0.0148979,0 0.0229858,-0.00724798 0.0229858,-0.0200179 0,-0.0124148 -0.00808792,-0.0186577 -0.0229858,-0.0186577 -0.0149689,0 -0.0229147,0.0062429 -0.0229147,0.0186577zm0.0190128 0c0,-0.00439851 0.000425582,-0.00801627 0.00390189,-0.00801627 0.00347631,0 0.00397293,0.00361776 0.00397293,0.00801627 0,0.00539174 -0.000496616,0.00936467 -0.00397293,0.00936467 -0.00347631,0 -0.00390189,-0.00397293 -0.00390189,-0.00936467z" />
  <path
   id="12345"
   class="fil1"
   d="M0.228508 0.488676l0.0185866 0 0 -0.02632 0.00759131 0 0 -0.0106414 -0.00759131 0 0 -0.00191543c0,-0.0029797 0.0022706,-0.00454058 0.00454058,-0.00454058 0.00226998,0 0.00305073,0.000284137 0.00390189,0.000496616l0 -0.00986066c-0.00248308,-0.000638684 -0.00688159,-0.00127737 -0.011067,-0.00127737 -0.0092226,0 -0.0157496,0.004115 -0.0159621,0.0139763l0 0.00312114 -0.00652704 0 0 0.0106414 0.00652704 0 0 0.02632z" />
  <path
   id="123456"
   class="fil1"
   d="M0.284624 0.488676l0.0190128 0 0 -0.0142598 0.0136211 0c0.00993169,0 0.0182321,-0.00532071 0.0182321,-0.0182321 0,-0.0133376 -0.0104289,-0.0170264 -0.0181617,-0.0170264l-0.0327044 0 0 0.0495183zm0.0185162 -0.0380257l0.00411437 0c0.00461161,0 0.0092226,0.000638684 0.0092226,0.00588836 0,0.00553381 -0.00461099,0.00638497 -0.00915157,0.00638497l-0.00418541 0 0 -0.0122733z" />
  <path
   id="1234567"
   class="fil1"
   d="M0.340811 0.488676l0.0178775 0 0 -0.0212828c0,-0.00212853 0,-0.00503719 0.0031928,-0.00503719 0.00312114,0 0.00312114,0.00290866 0.00312114,0.00503719l0 0.0212828 0.0178782 0 0 -0.0256813c0,-0.0071651 -0.00347631,-0.0121313 -0.012983,-0.0121313 -0.00503657,0 -0.00936404,0.00248308 -0.011067,0.00546277l-0.000142068 0 0 -0.0208572 -0.0178775 0 0 0.0532071z" />
  <path
   id="12345678"
   class="fil1"
   d="M0.387491 0.469521c0,0.0127699 0.00794585,0.0200179 0.0229147,0.0200179 0.0148979,0 0.0229858,-0.00724798 0.0229858,-0.0200179 0,-0.0124148 -0.00808792,-0.0186577 -0.0229858,-0.0186577 -0.0149689,0 -0.0229147,0.0062429 -0.0229147,0.0186577zm0.0190128 0c0,-0.00439851 0.000425582,-0.00801627 0.00390189,-0.00801627 0.00347631,0 0.00397293,0.00361776 0.00397293,0.00801627 0,0.00539174 -0.000496616,0.00936467 -0.00397293,0.00936467 -0.00347631,0 -0.00390189,-0.00397293 -0.00390189,-0.00936467z" />
  <path
   id="123456789"
   class="fil1"
   d="M0.453468 0.466684c-0.000212479,-0.00290866 0.000709718,-0.00730717 0.00482471,-0.00730717 0.00404334,0 0.00446892,0.00446954 0.00446892,0.00730717l-0.00929363 0zm0.0247598 0.00780379l0 -0.00219894c0,-0.0124864 -0.00503719,-0.0214249 -0.019368,-0.0214249 -0.0149689,0 -0.0229141,0.0062429 -0.0229141,0.0186577 0,0.0127699 0.00794523,0.0200179 0.0229141,0.0200179 0.00624353,0 0.0119188,-0.000638061 0.0166718,-0.00213975l0 -0.00957777c-0.00283763,0.00148985 -0.00723614,0.00234163 -0.0121313,0.00234163 -0.00524967,0 -0.00957715,-0.00106427 -0.00986128,-0.00567588l0.0246887 0z" />
  <path
   id="12345678910"
   class="fil1"
   d="M0.482697 0.488676l0.0178775 0 0 -0.0212828c0,-0.00212853 0,-0.00503719 0.0031928,-0.00503719 0.00312114,0 0.00312114,0.00290866 0.00312114,0.00503719l0 0.0212828 0.0178782 0 0 -0.0256813c0,-0.0071651 -0.00347631,-0.0121313 -0.012983,-0.0121313 -0.00503657,0 -0.00993169,0.0020575 -0.0120602,0.00723614l-0.000141445 0 0 -0.00638497 -0.0168849 0 0 0.0369614z" />
  <path
   id="1234567891011"
   class="fil1"
   d="M0.531577 0.488676l0.0178775 0 0 -0.0369614 -0.0178775 0 0 0.0369614zm0.0178775 -0.0532071l-0.0178775 0 0 0.0123437 0.0178775 0 0 -0.0123437z" />
  <polygon
   id="123456789101112"
   class="fil1"
   points="0.553002,0.451715 0.564282,0.468812 0.552139,0.488676 0.570383,0.488676 0.576413,0.476758 0.582231,0.488676 0.601173,0.488676 0.58897,0.468528 0.599257,0.451715 0.581734,0.451715 0.576768,0.462782 0.571802,0.451715 " />
 </g>
</svg>